<svg xmlns="http://www.w3.org/2000/svg" viewBox="0 0 128 128" role="img" aria-label="ICAV SPI">
  <rect width="128" height="128" rx="24" fill="#0b0d10"/>
  <g transform="translate(64 64) scale(.54) translate(-90 -105)">
    <path d="M86 29 Q90 12 94 29 L95 73 L173 91 L173 104 L95 94 L94 164 L118 175 L118 183 L93 177 L90 193 L87 177 L62 183 L62 175 L86 164 L85 94 L7 104 L7 91 L85 73 Z" fill="#f6f4ee" stroke="#f6f4ee" stroke-width="1.4" stroke-linejoin="round"/>
    <path d="M17 93 L17 102 M29 90 L29 100 M41 87 L41 98 M53 84 L53 97 M65 81 L65 95 M77 78 L77 94 M103 78 L103 94 M115 81 L115 95 M127 84 L127 97 M139 87 L139 98 M151 90 L151 100 M163 93 L163 102" fill="none" stroke="#657789" stroke-width="2"/>
  </g>
</svg>